<?xml version="1.0" encoding="utf-8"?>
<svg viewBox="0 0 500 500" width="500px" height="500px" xmlns="http://www.w3.org/2000/svg" xmlns:bx="https://boxy-svg.com"><defs><path id="path-0" style="fill: none;" d="M 197.491 138.679 L 214.388 165.663 C 222.678 165.663 228.285 162.119 234.815 158.854"/><path id="path-1" style="fill: none;" d="M 249.44145579362151 139.43598386898165 L 276.4058591603596 173.838843336889"/><path id="path-2" style="fill: none;" d="M 250.198 152.802 C 248.685 165.411 244.635 163.636 242.632 163.394 C 235.232 162.497 228.371 161.881 220.944 161.881 L 219.431 162.133 C 218.67 162.133 217.971 162.385 217.162 162.385"/><path id="path-3" style="fill: none;" d="M 217.16168729220544 162.38488178795717 L 237.08466794845327 128.27944032556672"/><bx:export><bx:file format="svg"/></bx:export></defs><path d="M 108.28 161.789 L 133.754 161.789 L 115.026 189.548 L 89.552 189.548 L 108.28 161.789 Z" fill="#007AFF"/><path d="M 109.396 192.121 L 102.142 202.873 L 128.824 202.873 L 147.552 175.114 L 127.859 175.114 L 116.385 192.121 L 109.396 192.121 Z" fill="#312ECB"/><text style="fill: rgb(51, 51, 51); font-family: Arial, sans-serif; font-size: 24px; font-weight: 700; white-space: pre;" transform="matrix(0.971274, 0, 0, 0.896, 3.946056, 16.042148)" x="154.13" y="193.61">ClarityCut</text></svg>